<?xml version="1.0" ?><svg viewBox="0 0 374.95 272.03" xmlns="http://www.w3.org/2000/svg"><defs><style>.cls-1{fill:#fbfcf2;}.cls-2,.cls-7{fill:#3f5a7c;}.cls-2{opacity:0.15;}.cls-3{fill:#2e576d;}.cls-4{fill:#e28a7f;}.cls-5{fill:#8a7683;opacity:0.5;}.cls-6{fill:#d85e5b;}.cls-7{opacity:0.2;}.cls-8{fill:#fff;}.cls-9{fill:#274b5b;}</style></defs><title/><g data-name="Layer 2" id="Layer_2"><g data-name="Layer 1" id="Layer_1-2"><path class="cls-1" d="M176.16,43.94c-17.5-.35-33.89-8.28-49.13-16.88C106.84,15.67,85.95,2.07,61.8,2.77,50.58,3.09,39.18,7,31.22,14.88c-8.8,8.73-12.63,21.55-12.66,33.94C18.48,77.72,36.21,102.63,39.1,131c2.52,24.65-7.54,49.38-2.1,73.84,8,36.16,41.59,55.93,75.61,63,28.13,5.86,66.15,8.8,88.14-13.43,11.16-11.28,20.08-28.66,36-28.82,12.46-.12,21.73,10.91,32.56,17.07,18.62,10.58,43.59,5.83,59.6-8.4,25.27-22.46,22.81-53.82,19.93-84.94A179.62,179.62,0,0,1,352,95.65c3.68-17.47,11.58-34.54,6.28-52.64C349.47,12.77,309-.52,280.69,0c-21.45.4-42.31,7.21-61,17.44-17.79,9.73-34.11,21.52-55.5,21"/><circle class="cls-2" cx="175.67" cy="144.39" r="117.5"/><rect class="cls-3" height="3.46" width="32.98" x="48.97" y="105.35"/><circle class="cls-3" cx="42.54" cy="107.08" r="7.16"/><rect class="cls-3" height="3.46" width="67.46" x="12.69" y="122.41"/><circle class="cls-3" cx="7.16" cy="124.14" r="7.16"/><rect class="cls-3" height="3.46" width="55.8" x="26.14" y="139.47"/><circle class="cls-3" cx="21.06" cy="141.2" r="7.16"/><rect class="cls-3" height="3.46" width="67.22" x="11.14" y="156.53"/><circle class="cls-3" cx="7.16" cy="158.26" r="7.16"/><rect class="cls-3" height="3.46" width="32.98" x="293" y="105.35"/><circle class="cls-3" cx="332.4" cy="107.08" r="7.16"/><rect class="cls-3" height="3.46" width="67.46" x="294.8" y="122.41"/><circle class="cls-3" cx="367.79" cy="124.14" r="7.16"/><rect class="cls-3" height="3.46" width="55.8" x="293" y="139.47"/><circle class="cls-3" cx="353.89" cy="141.2" r="7.16"/><rect class="cls-3" height="3.46" width="67.22" x="296.59" y="156.53"/><circle class="cls-3" cx="367.79" cy="158.26" r="7.16"/><circle class="cls-4" cx="190.69" cy="127.41" r="115.5"/><path class="cls-5" d="M194.67,243.74c-2,.1-4,.15-6,.15a115.5,115.5,0,1,1,0-231c2,0,4,0,6,.15a115.51,115.51,0,0,0,0,230.7Z"/><path class="cls-5" d="M185.17,13c2-.1,4-.15,6-.15a115.5,115.5,0,1,1,0,231c-2,0-4,0-6-.15a115.51,115.51,0,0,0,0-230.7Z"/><circle class="cls-6" cx="190.69" cy="127.41" r="95.5"/><path class="cls-7" d="M209.24,34.44A95.45,95.45,0,0,1,271.51,79.3a1.5,1.5,0,0,0,2.59-1.51A98.44,98.44,0,0,0,210,31.55c-1.88-.41-2.69,2.48-.8,2.89Z"/><path class="cls-7" d="M285.28,126.66a95,95,0,0,1-94,94,1.5,1.5,0,0,0,0,3,98.07,98.07,0,0,0,97-97,1.5,1.5,0,0,0-3,0Z"/><path class="cls-3" d="M100,111.65a93.65,93.65,0,0,1,91.3-77.49c3.86,0,3.87-6,0-6-47.64.43-88.78,34.88-97.09,81.89-.67,3.78,5.11,5.4,5.79,1.6Z"/><path class="cls-3" d="M98.78,126.66q0-2.46.12-4.92a3,3,0,0,0-3-3,3.07,3.07,0,0,0-3,3q-.12,2.46-.12,4.92a3,3,0,0,0,6,0Z"/><path class="cls-3" d="M280,200.31c-31.4,37.71-83.73,52.25-129.88,35C109.48,220.13,80,181.73,76,138.55a116.44,116.44,0,0,1,24.57-83c2.37-3-1.85-7.27-4.24-4.24-32.12,40.59-35.76,98.29-7.42,141.92a121.25,121.25,0,0,0,195.35,11.3c2.45-2.95-1.77-7.21-4.24-4.24Z"/><path class="cls-3" d="M291.54,183.25q-2.33,4.16-5,8.14c-2.14,3.23,3.05,6.24,5.18,3q2.63-4,5-8.14c1.89-3.37-3.29-6.4-5.18-3Z"/><path class="cls-3" d="M135.53,26.19c32.66-17.57,72.65-18.74,106-2.26a115.27,115.27,0,0,1,60.94,131.71c-.92,3.75,4.87,5.35,5.79,1.6,8.78-35.94,1.2-74.3-21.42-103.69A121.28,121.28,0,0,0,132.5,21c-3.4,1.83-.38,7,3,5.18Z"/><path class="cls-8" d="M219.09,47.67A53.74,53.74,0,0,1,238.64,58c1.48,1.22,3.61-.89,2.12-2.12a57.5,57.5,0,0,0-20.87-11.13,1.5,1.5,0,0,0-.8,2.89Z"/><circle class="cls-3" cx="86.67" cy="35.39" r="4.5"/><path class="cls-3" d="M302.67,56.89a5.5,5.5,0,1,1,5.5-5.5A5.51,5.51,0,0,1,302.67,56.89Zm0-9a3.5,3.5,0,1,0,3.5,3.5A3.5,3.5,0,0,0,302.67,47.89Z"/><path class="cls-3" d="M57.67,201.89a5.5,5.5,0,1,1,5.5-5.5A5.51,5.51,0,0,1,57.67,201.89Zm0-9a3.5,3.5,0,1,0,3.5,3.5A3.5,3.5,0,0,0,57.67,192.89Z"/><circle class="cls-3" cx="306.67" cy="205.39" r="4.5"/><path class="cls-3" d="M56.67,66.89v8a1.5,1.5,0,0,0,3,0v-8a1.5,1.5,0,0,0-3,0Z"/><path class="cls-3" d="M62.17,69.39h-8a1.5,1.5,0,0,0,0,3h8a1.5,1.5,0,0,0,0-3Z"/><path class="cls-3" d="M291.67,217.89v8a1.5,1.5,0,0,0,3,0v-8a1.5,1.5,0,0,0-3,0Z"/><path class="cls-3" d="M297.17,220.39h-8a1.5,1.5,0,0,0,0,3h8a1.5,1.5,0,0,0,0-3Z"/><path class="cls-9" d="M211.27,151.83,191.08,167a1,1,0,0,1-1.18,0L158.6,143.5a1,1,0,0,1-.41-.8,1,1,0,0,1,1-1h15.64a.94.94,0,0,1,.59.21l20.32,15.23a1,1,0,0,1,.2,1.38,1,1,0,0,1-1.38.18l-20.05-15H162.12L190.49,165l19.6-14.7a1,1,0,0,1,1.38.18A1,1,0,0,1,211.27,151.83Z"/><path class="cls-9" d="M222.39,155.25,206.72,167a1,1,0,0,1-1.16,0l-4.52-3.4a1,1,0,0,1-.2-1.36,1,1,0,0,1,1.38-.2l3.93,2.95,14-10.53L158.6,108.28a.74.74,0,0,1-.18-.2,1,1,0,0,1,.18-1.38l4.33-3.24a1,1,0,0,1,1.36.2,0,0,0,0,1,0,0,1,1,0,0,1-.2,1.36l-3.28,2.45,61.56,46.18a.88.88,0,0,1,.2.21A1,1,0,0,1,222.39,155.25Z"/><path class="cls-9" d="M222.37,143.5l-4.52,3.39a1,1,0,0,1-1.16-1.56l3.48-2.62L158.6,96.52a1.31,1.31,0,0,1-.21-.2A1,1,0,0,1,158.6,95l15.65-11.74a1,1,0,0,1,1.18,0l4.88,3.66a1,1,0,0,1,.2,1.38,1,1,0,0,1-1.36.18l-4.31-3.22-14,10.51,61.55,46.18a1.3,1.3,0,0,1,.21.2A1,1,0,0,1,222.37,143.5Z"/><path class="cls-9" d="M222.72,107.79a1,1,0,0,1-.94.67H206.13a.88.88,0,0,1-.57-.2L185,92.87a1,1,0,0,1-.21-1.38,1,1,0,0,1,1.38-.2l20.28,15.21h12.39L190.49,85.23,170.85,100a1,1,0,0,1-1.16-1.57L189.9,83.23a1,1,0,0,1,1.16,0l31.3,23.49A1,1,0,0,1,222.72,107.79Z"/><path class="cls-3" d="M136.88,203.73a94.88,94.88,0,0,1-30.11-35c-1.75-3.45-6.92-.41-5.18,3a101.05,101.05,0,0,0,32.26,37.13c3.16,2.23,6.16-3,3-5.18Z"/></g></g></svg>