<?xml version="1.0" ?><svg id="Layer_1" style="enable-background:new 0 0 100 100;" version="1.1" viewBox="0 0 100 100" xml:space="preserve" xmlns="http://www.w3.org/2000/svg" xmlns:xlink="http://www.w3.org/1999/xlink"><path d="M83.5,18.5C74.9,9.3,62.8,4,50.2,4c-6.1,0-12,1.1-17.6,3.4C15.2,14.5,4,31.3,4,50c0,13.9,6.2,26.9,17,35.7  C29.2,92.3,39.4,96,50,96c6.6,0,13.2-1.5,19.2-4.2c12.5-5.7,21.7-16.6,25.2-29.8C95.5,57.9,96,53.8,96,50  C96,38.3,91.6,27.1,83.5,18.5z M75,22.3c-0.7,0.9-1.4,1.8-2.1,2.6c-1.4,1.6-2.8,3-4.4,4.3c-0.3,0.3-0.6,0.6-1,0.8  c-1,0.9-2.1,1.7-3.2,2.5l-0.3,0.2c-1.1,0.7-2.2,1.5-3.5,2.2c-0.4,0.3-0.9,0.5-1.4,0.8c-0.8,0.5-1.7,0.9-2.7,1.4  c-0.6,0.3-1.2,0.5-1.8,0.8L54.3,38c-0.1,0-0.2,0.1-0.3,0.1c0,0,0,0,0,0c-1.3-2.6-2.4-4.9-3.5-7l-0.3-0.5c-1.1-2-2.2-4-3.3-6  l-0.7-1.3c-1.1-1.9-2.2-3.7-3.2-5.4l-0.7-1.1c-0.7-1.2-1.4-2.3-2.2-3.5c3.2-0.8,6.5-1.3,9.8-1.3c9.4,0,18.4,3.5,25.4,9.8  C75.3,21.9,75.2,22.1,75,22.3z M46.4,40.6c-1.4,0.4-2.9,0.8-4.4,1.1c-0.3,0-0.7,0.1-0.9,0.2c-6,1-12.5,1.4-19.4,1.1  c-0.3,0-0.6,0-0.9,0c-0.3,0-0.5,0-0.7,0c-2.5-0.2-4.9-0.4-7.2-0.7c2.3-11.2,9.6-20.9,19.8-26.1c2.1,3.3,4.2,6.7,6.3,10.3l0.4,0.7  c0.9,1.6,1.9,3.4,3.2,5.8l0.6,1.2C44.4,36.6,45.4,38.6,46.4,40.6z M24.4,51.1c2.2,0.1,4.2,0,6.2-0.1l0.7,0c0.4,0,0.9,0,1.3,0  c2.8-0.2,5.5-0.5,8.5-1c0.5-0.1,1-0.2,1.6-0.3l0.5-0.1c2.2-0.4,4.2-0.9,6.1-1.4c0.1,0,0.3-0.1,0.4-0.1l0.5,1.1  c1.2,2.8,2.3,5.5,3.3,8.1c0,0,0,0,0,0c-0.2,0.1-0.5,0.2-0.7,0.2c-2,0.6-4,1.4-5.9,2.2c-0.6,0.3-1.3,0.5-1.9,0.8  c-1.4,0.6-2.7,1.3-4.1,2.1l-0.3,0.2c-0.2,0.1-0.5,0.2-0.6,0.4c-1.5,0.9-3.1,1.9-4.7,3c-0.2,0.1-0.4,0.3-0.6,0.4  c-0.2,0.1-0.4,0.3-0.6,0.5c-1,0.7-2,1.5-3,2.3c-0.4,0.3-0.7,0.6-1.1,0.9l-0.3,0.3c-0.7,0.6-1.5,1.3-2.2,1.9l-0.2,0.2  c-0.4,0.4-0.7,0.7-1.1,1.1l-0.2,0.2c-0.6,0.6-1.3,1.3-2,2l-0.4,0.4c-0.2,0.2-0.4,0.4-0.5,0.6C16.1,69.9,12,60.2,12,50.3  c0,0,0.1,0,0.1,0c0.4,0,0.7,0,1.1,0.1c3.5,0.4,6.9,0.6,10.3,0.7C23.8,51,24.1,51.1,24.4,51.1z M29.5,81.9c0.2-0.2,0.3-0.4,0.5-0.5  c1-1.1,2-2.1,3-3c1.9-1.8,3.8-3.3,5.7-4.8c0.2-0.1,0.4-0.3,0.6-0.4c0.2-0.2,0.5-0.4,0.8-0.6c1.1-0.8,2.2-1.5,3.4-2.2  c0.1-0.1,0.2-0.1,0.3-0.2c0.1-0.1,0.2-0.1,0.3-0.2c1.4-0.8,2.9-1.6,4.5-2.3c0.3-0.1,0.6-0.2,0.8-0.4l0.6-0.3  c1.1-0.5,2.2-0.9,3.5-1.4c0.5-0.2,1.1-0.4,1.7-0.6l0.2-0.1c0.4-0.1,0.7-0.2,1.1-0.3c0,0,0,0,0,0c1.1,3.2,2.3,6.4,3.3,9.8l0.1,0.4  c1.1,3.6,2,7.3,2.9,10.8C51.7,89.8,39.3,88.3,29.5,81.9C29.4,81.9,29.4,81.9,29.5,81.9z M65.6,62.9c0.7-0.1,1.3-0.2,2-0.2  c2-0.2,4-0.2,5.9-0.2c0.2,0,0.4,0,0.6,0l0.2,0c2.2,0.1,4.6,0.3,6.9,0.6c0.4,0.1,0.9,0.1,1.3,0.2l0.6,0.1c0.7,0.1,1.5,0.3,2.2,0.4  c-3,7.6-8.3,14-15.2,18.3c-0.8-3.1-1.7-6.2-2.6-9.2l-0.1-0.4c-0.9-3-1.9-6.1-3.1-9.5C64.8,63.1,65.2,63,65.6,62.9z M81.6,55.2  C80,55,78.4,54.9,77,54.8l-0.9-0.1c-0.9-0.1-1.9-0.1-2.8-0.2c-0.2,0-0.3,0-0.5,0c-0.2,0-0.4,0-0.6,0c-2,0-3.9,0.1-5.9,0.3  c-0.2,0-0.3,0-0.5,0.1c-0.1,0-0.2,0-0.3,0c-1.3,0.1-2.6,0.3-3.9,0.5c-0.1-0.1-0.1-0.3-0.2-0.4c-0.1-0.2-0.2-0.5-0.3-0.7  c-1.1-2.9-2.3-5.7-3.2-7.8l-0.3-0.6c-0.1-0.1-0.1-0.3-0.2-0.4c0,0,0,0,0.1,0c0.2-0.1,0.5-0.2,0.7-0.3c0.6-0.2,1.2-0.5,1.8-0.8  c1.2-0.5,2.4-1.2,3.6-1.8c0.1-0.1,0.3-0.2,0.5-0.2c0.2-0.1,0.5-0.2,0.7-0.4c1.5-0.9,2.9-1.8,4.2-2.7l0.3-0.2  c0.2-0.1,0.4-0.3,0.6-0.4c0.9-0.6,1.9-1.4,2.8-2.2c1.5-1.2,2.9-2.5,4.3-4c0.8-0.8,1.5-1.6,2.2-2.4l0.4-0.5c0.5-0.5,0.9-1.1,1.3-1.6  C85.5,34.3,88,42.1,88,50c0,2-0.2,4.1-0.5,6.1c-0.3,0-0.6-0.1-0.8-0.1c-0.4-0.1-0.7-0.1-1.1-0.2l-1.1-0.2  C83.5,55.5,82.5,55.3,81.6,55.2z"/></svg>